# xmcd CD database file
#
# Track frame offsets:
#	150
#	31629
#	64854
#	86892
#	122690
#	152932
#	167124
#	194249
#	221228
#	250466
#
# Disc length: 3724 seconds
#
# Revision: 0
# Processed by: cddbd v1.5.2PL0 Copyright (c) Steve Scherf et al.
# Submitted via: CDex 1.83
#
DISCID=970e8a0a
DTITLE=Masashi Usui - All That You See
DYEAR=2017
DGENRE=Jazz
TTITLE0=Masashi Usui - Midnight in Montreal
TTITLE1=Masashi Usui - Koijigahama
TTITLE2=Masashi Usui - Triones
TTITLE3=Masashi Usui - I'm With You
TTITLE4=Masashi Usui - Toe-to-Toe
TTITLE5=Masashi Usui - Argy-Bargy
TTITLE6=Masashi Usui - Mondegreen
TTITLE7=Masashi Usui - Which Side Are You On
TTITLE8=Masashi Usui - Airy-Fairy
TTITLE9=Masashi Usui - All That You See
EXTD=YEAR: 2017
EXTT0=
EXTT1=
EXTT2=
EXTT3=
EXTT4=
EXTT5=
EXTT6=
EXTT7=
EXTT8=
EXTT9=
PLAYORDER=
